<?xml version="1.0" encoding="UTF-8"?>
<svg xmlns="http://www.w3.org/2000/svg" xmlns:xlink="http://www.w3.org/1999/xlink" width="38px" height="34px" viewBox="0 0 38 34" version="1.1">
<g id="surface1">
<path style=" stroke:none;fill-rule:nonzero;fill:rgb(97.647059%,24.313726%,24.313726%);fill-opacity:1;" d="M 8.113281 0.046875 C 7.203125 0.214844 6.46875 0.761719 6.046875 1.582031 C 5.839844 1.992188 5.757812 2.3125 5.738281 2.773438 L 5.722656 3.15625 L 4.101562 3.164062 L 2.480469 3.175781 L 2.195312 3.253906 C 1.132812 3.546875 0.359375 4.328125 0.0859375 5.398438 L 0.015625 5.667969 L 0.015625 18.589844 C 0.015625 30.746094 0.0195312 31.519531 0.0664062 31.707031 C 0.34375 32.808594 1.128906 33.613281 2.207031 33.90625 L 2.449219 33.972656 L 18.984375 33.972656 C 34.71875 33.972656 35.53125 33.96875 35.742188 33.917969 C 36.820312 33.660156 37.675781 32.792969 37.933594 31.703125 C 37.980469 31.488281 37.984375 30.828125 37.984375 18.574219 L 37.984375 5.667969 L 37.914062 5.398438 C 37.640625 4.328125 36.878906 3.550781 35.804688 3.253906 L 35.519531 3.171875 L 27.785156 3.164062 L 20.046875 3.15625 L 20.03125 2.816406 C 20 2.328125 19.917969 2.007812 19.699219 1.574219 C 19.410156 0.988281 18.820312 0.449219 18.191406 0.199219 C 17.710938 0.0078125 18.054688 0.0195312 12.957031 0.0117188 C 9.246094 0.0078125 8.285156 0.0117188 8.113281 0.046875 Z M 17.453125 1.921875 C 17.75 2.015625 17.945312 2.191406 18.089844 2.496094 L 18.183594 2.691406 L 18.199219 3.519531 C 18.214844 4.277344 18.21875 4.359375 18.277344 4.484375 C 18.367188 4.6875 18.507812 4.828125 18.710938 4.933594 L 18.890625 5.023438 L 27 5.023438 C 32.730469 5.023438 35.160156 5.03125 35.285156 5.054688 C 35.628906 5.121094 35.914062 5.34375 36.058594 5.664062 L 36.144531 5.851562 L 36.152344 6.65625 C 36.164062 7.425781 36.164062 7.464844 36.109375 7.449219 C 36.078125 7.4375 35.949219 7.398438 35.816406 7.363281 L 35.582031 7.292969 L 2.417969 7.292969 L 2.183594 7.363281 C 2.050781 7.398438 1.921875 7.4375 1.890625 7.449219 C 1.835938 7.464844 1.835938 7.425781 1.847656 6.65625 L 1.855469 5.851562 L 1.941406 5.664062 C 2.035156 5.460938 2.234375 5.25 2.421875 5.148438 C 2.652344 5.03125 2.820312 5.023438 4.855469 5.023438 C 7.070312 5.023438 6.980469 5.03125 7.242188 4.792969 C 7.328125 4.714844 7.425781 4.585938 7.472656 4.488281 L 7.554688 4.316406 L 7.570312 3.472656 C 7.585938 2.675781 7.589844 2.625 7.652344 2.492188 C 7.796875 2.199219 8.046875 1.984375 8.339844 1.90625 C 8.441406 1.875 9.488281 1.867188 12.875 1.867188 C 17.117188 1.863281 17.277344 1.867188 17.453125 1.921875 Z M 35.542969 9.238281 C 35.757812 9.34375 35.964844 9.550781 36.0625 9.769531 L 36.144531 9.941406 L 36.144531 31.296875 L 36.0625 31.476562 C 35.953125 31.710938 35.753906 31.914062 35.523438 32.023438 L 35.34375 32.109375 L 2.65625 32.109375 L 2.480469 32.023438 C 2.246094 31.914062 2.046875 31.710938 1.9375 31.480469 L 1.855469 31.296875 L 1.855469 9.941406 L 1.921875 9.796875 C 2.058594 9.5 2.269531 9.304688 2.5625 9.199219 C 2.710938 9.148438 3.394531 9.148438 19.042969 9.152344 L 35.371094 9.160156 Z M 35.542969 9.238281 "/>
</g>
</svg>
