<svg width="38" height="44" viewBox="0 0 38 44" fill="none" xmlns="http://www.w3.org/2000/svg">
<path d="M3 44H35C36.6569 44 38 42.654 38 40.9972V12.2407C38 11.4995 37.7266 10.7844 37.2283 10.2357C34.9505 7.72745 31.3981 3.88255 28.8342 1.01274C28.2603 0.37029 27.4416 0 26.5801 0H3C1.34315 0 0 1.34315 0 3V41C0 42.6569 1.34315 44 3 44Z" fill="#F8F8F8"/>
<path d="M35 43.5H3C1.61929 43.5 0.5 42.3807 0.5 41V3C0.5 1.61929 1.61929 0.5 3 0.5H26.5801C27.2977 0.5 27.9812 0.808442 28.4614 1.34586C30.1357 3.21997 32.2336 5.5122 34.1207 7.57412C35.1247 8.67108 36.069 9.70286 36.8581 10.5718C37.272 11.0275 37.5 11.6225 37.5 12.2407V40.9972C37.5 42.3785 36.3801 43.5 35 43.5Z" stroke="#A0A1A5"/>
<path d="M30.7661 18.8828H26.0786V21.2969H29.7114V22.586H26.0786V26.4532H24.602V22V17.5469H30.7661V18.8828Z" fill="#FF3434"/>
<path d="M18.6836 17.5469C21.5195 17.5469 23.0898 19.3047 23.0898 22C23.0898 24.625 21.4492 26.4532 18.6836 26.4532H15.4258V17.5469H18.6836ZM18.6836 25.1641C20.4883 25.1641 21.5664 23.9453 21.5664 22C21.5664 20.0547 20.4883 18.836 18.6836 18.836H16.9023V25.1641H18.6836Z" fill="#FF3434"/>
<path d="M10.9604 17.5469C12.9058 17.5469 14.1245 18.6016 14.1245 20.2891C14.1245 22 12.9058 23.0547 10.9604 23.0547H8.71045V26.4532H7.23389V17.5469H10.9604ZM10.7729 21.7891C11.9917 21.7891 12.6245 21.2735 12.6245 20.3125C12.6245 19.3282 11.9917 18.836 10.7729 18.836H8.71045V21.7891H10.7729Z" fill="#FF3434"/>
</svg>
