<svg width="64" height="85" viewBox="0 0 64 85" fill="none" xmlns="http://www.w3.org/2000/svg">
<g id="Logo" clip-path="url(#clip0_471_226)">
<g id="Group">
<g id="Group_2">
<path id="Vector" fill-rule="evenodd" clip-rule="evenodd" d="M44.6875 23.1639V31.2391L42.1467 32.5095L41.2268 32.9694L31.9981 37.5838L22.7708 32.9694V32.968L22.7694 32.9694L19.3086 31.2391V23.1639L31.9981 29.5087L44.6875 23.1639Z" fill="#079F5D"/>
<path id="Vector_2" fill-rule="evenodd" clip-rule="evenodd" d="M19.7341 22.2209L10.5039 17.6065L31.9981 6.85944L32.0054 6.86232L39.8757 10.8018L39.8728 10.8062L53.4924 17.6065L44.2637 22.2209L31.9981 28.3537L19.7341 22.2209Z" fill="#079F5D"/>
</g>
<g id="Group_3">
<path id="Vector_3" fill-rule="evenodd" clip-rule="evenodd" d="M31.9981 55.6405L36.6125 53.3333H36.6139L41.2269 51.0261L53.4924 44.8933V53.44C53.4722 57.5914 52.271 61.4661 50.2104 64.7466C48.0446 68.1944 44.927 70.9846 41.2269 72.7482C38.5736 74.0128 35.6204 74.7482 32.5057 74.8218H31.4906C28.3759 74.7482 25.4227 74.0128 22.7709 72.7482C19.0708 70.9846 15.9517 68.1944 13.7859 64.7466C11.7065 61.4387 10.5039 57.5251 10.5039 53.3333V44.8933L11.9358 45.61L22.7709 51.0261L31.9981 55.6405ZM22.1926 51.8913V56.7652C22.1926 57.3131 22.5027 57.8149 22.993 58.0601C25.2367 59.182 31.4214 62.2736 31.4214 62.2736C31.4214 62.2736 31.4214 59.0205 31.4214 57.4011C31.4214 56.8517 31.1113 56.3514 30.621 56.1062C28.3773 54.9844 22.1926 51.8913 22.1926 51.8913ZM41.8036 51.8913C41.8036 51.8913 35.619 54.9844 33.3752 56.1062C32.885 56.3514 32.5749 56.8517 32.5749 57.4011C32.5749 59.0205 32.5749 62.2736 32.5749 62.2736C32.5749 62.2736 38.7596 59.182 41.0033 58.0601C41.4936 57.8149 41.8036 57.3131 41.8036 56.7652C41.8036 55.1444 41.8036 51.8913 41.8036 51.8913ZM22.1926 58.8128V63.6853C22.1926 64.2347 22.5027 64.7351 22.993 64.9802C25.2367 66.1021 31.4214 69.1951 31.4214 69.1951C31.4214 69.1951 31.4214 65.942 31.4214 64.3227C31.4214 63.7733 31.1113 63.2729 30.621 63.0263C28.3773 61.9059 22.1926 58.8128 22.1926 58.8128ZM41.8036 58.8128C41.8036 58.8128 35.619 61.9059 33.3752 63.0278C32.885 63.2729 32.5749 63.7733 32.5749 64.3227V69.1951C32.5749 69.1951 38.7596 66.1021 41.0033 64.9802C41.4936 64.7351 41.8036 64.2347 41.8036 63.6853V58.8128Z" fill="#079F5D"/>
</g>
<g id="Group_4">
<path id="Vector_4" fill-rule="evenodd" clip-rule="evenodd" d="M4.3126 53.391V13.8388L31.9987 0L59.6848 13.8388L59.6747 20.7646L59.6848 53.391H59.6892C59.6892 54.3167 59.6416 55.2425 59.5493 56.1639C59.5161 56.4783 59.6921 56.7782 59.9833 56.9022C60.7822 57.2425 62.3511 57.913 63.1687 58.262C63.4772 58.3932 63.6546 58.7191 63.5969 59.0493C63.2768 60.833 62.8067 62.5851 62.1924 64.2895C62.0771 64.6039 61.7613 64.7985 61.4282 64.7582C60.5457 64.6515 58.8514 64.4467 57.9891 64.3414C57.6761 64.3039 57.3733 64.4755 57.245 64.7639C56.8081 65.7329 56.3178 66.6745 55.7742 67.5859C55.369 68.2651 54.9335 68.9255 54.4721 69.5686C54.2861 69.8238 54.2889 70.1714 54.4793 70.4237C54.9998 71.1188 56.0236 72.4829 56.5572 73.1938C56.7591 73.462 56.7489 73.834 56.5341 74.0907C55.3646 75.475 54.0827 76.7583 52.697 77.9263C52.4403 78.1412 52.0697 78.1513 51.8015 77.9494C51.0906 77.4159 49.7265 76.3921 49.0314 75.8701C48.7791 75.6812 48.4316 75.6783 48.1763 75.8643C46.6709 76.9473 45.0616 77.8759 43.3716 78.6373C43.0832 78.7656 42.9117 79.0684 42.9506 79.3813C43.0544 80.2436 43.2592 81.9379 43.3659 82.8204C43.4063 83.1535 43.2116 83.4694 42.8973 83.5847C42.345 83.7837 41.7884 83.9668 41.2274 84.1355C40.0551 84.4874 38.8626 84.7729 37.6571 84.9878C37.3269 85.0469 37.001 84.8695 36.8697 84.561C36.5208 83.7433 35.8503 82.1744 35.51 81.3756C35.386 81.0843 35.086 80.9084 34.7717 80.9416C33.8502 81.0338 32.9245 81.0814 31.9987 81.0814C31.073 81.0814 30.1472 81.0338 29.2258 80.9416C28.91 80.9084 28.6115 81.0843 28.4875 81.3756C28.1472 82.1744 27.4766 83.7433 27.1277 84.561C26.9965 84.8695 26.6706 85.0469 26.3404 84.9892C25.1349 84.7729 23.9423 84.4874 22.7715 84.1355C22.2091 83.9668 21.6525 83.7837 21.1002 83.5847C20.7858 83.4694 20.5912 83.1535 20.6315 82.8204C20.7382 81.9379 20.943 80.2436 21.0468 79.3813C21.0858 79.0684 20.9142 78.7656 20.6258 78.6373C18.9343 77.8759 17.3251 76.9473 15.8211 75.8643C15.5659 75.6783 15.2183 75.6812 14.966 75.8715C14.2709 76.3921 12.9054 77.4159 12.1959 77.9494C11.9277 78.1513 11.5557 78.1412 11.299 77.9263C9.91471 76.7583 8.63136 75.475 7.46336 74.0907C7.2485 73.834 7.23838 73.462 7.44026 73.1952C7.9738 72.4828 8.99763 71.1188 9.51963 70.4237C9.70853 70.1714 9.71138 69.8238 9.52537 69.5686C9.06249 68.9255 8.62845 68.2651 8.22325 67.5859C7.67962 66.6745 7.18791 65.7329 6.75243 64.7639C6.62265 64.4755 6.32129 64.3054 6.00694 64.3429C5.14607 64.4467 3.45173 64.6515 2.56923 64.7582C2.23613 64.7985 1.91892 64.6039 1.80501 64.2895C1.19072 62.5851 0.720602 60.833 0.401924 59.0493C0.342802 58.7191 0.520196 58.3932 0.828781 58.262C1.64639 57.913 3.21524 57.2425 4.0141 56.9022C4.30538 56.7782 4.48131 56.4783 4.44814 56.1639C4.35441 55.2425 4.30827 54.3167 4.30827 53.391H4.3126ZM56.0813 16.0695L31.9944 4.02608L7.91612 16.0652V53.4039C7.91612 57.9 9.18794 62.2376 11.4692 65.9636C14.0604 70.1973 17.9552 73.6408 22.7715 75.6336C23.7333 76.0316 24.734 76.3719 25.7665 76.6488C27.4132 77.09 29.0672 77.3496 30.7038 77.439C31.1364 77.462 31.569 77.4735 31.9987 77.4735C32.4313 77.4735 32.8639 77.462 33.2936 77.439C36.0507 77.2904 38.7313 76.6661 41.2274 75.6264C45.8576 73.7014 49.8534 70.3501 52.5369 65.9679C53.7164 64.0414 54.6422 61.9145 55.2565 59.6232C55.8146 57.541 56.0813 55.4487 56.0813 53.391V16.0695Z" fill="#079F5D"/>
</g>
<g id="Group_5">
<path id="Vector_5" fill-rule="evenodd" clip-rule="evenodd" d="M41.8068 36.8961C41.8068 36.8961 41.8068 40.1535 41.8068 41.7714C41.8068 42.3179 41.4982 42.8168 41.0094 43.062C38.7686 44.1824 32.5781 47.2769 32.5781 47.2769C32.5781 47.2769 32.5781 44.0195 32.5781 42.4016C32.5781 41.8551 32.8867 41.3561 33.3755 41.111C35.6164 39.9906 41.8068 36.8961 41.8068 36.8961Z" fill="#079F5D"/>
<path id="Vector_6" fill-rule="evenodd" clip-rule="evenodd" d="M22.1932 36.8961V41.7714C22.1932 42.3179 22.5018 42.8168 22.9906 43.062C25.2314 44.1824 31.4219 47.2769 31.4219 47.2769C31.4219 47.2769 31.4219 44.0195 31.4219 42.4016C31.4219 41.8551 31.1133 41.3561 30.6245 41.111C28.3836 39.9906 22.1932 36.8961 22.1932 36.8961Z" fill="#079F5D"/>
<path id="Vector_7" fill-rule="evenodd" clip-rule="evenodd" d="M41.8068 43.8161V48.6929C41.8068 49.2394 41.4982 49.7383 41.0094 49.9835C38.7686 51.1039 32.5781 54.1984 32.5781 54.1984C32.5781 54.1984 32.5781 50.941 32.5781 49.3216C32.5781 48.7766 32.8867 48.2762 33.3755 48.0325C35.6164 46.912 41.8068 43.8161 41.8068 43.8161Z" fill="#079F5D"/>
<path id="Vector_8" fill-rule="evenodd" clip-rule="evenodd" d="M22.1932 43.8161C22.1932 43.8161 22.1932 47.075 22.1932 48.6929C22.1932 49.2394 22.5018 49.7383 22.9906 49.9835C25.2314 51.1039 31.4219 54.1984 31.4219 54.1984C31.4219 54.1984 31.4219 50.941 31.4219 49.3216C31.4219 48.7766 31.1133 48.2762 30.6245 48.0325C28.3836 46.912 22.1932 43.8161 22.1932 43.8161Z" fill="#079F5D"/>
</g>
</g>
<g id="Group_6">
<path id="Vector_9" d="M12.068 33.6634L10.5059 32.8824V31.4884L11.5273 31.8609L12.1521 31.7047L12.5607 30.9477L13.5581 31.4404V43.8895L12.068 43.1685V33.6634Z" fill="#079F5D"/>
<path id="Vector_10" d="M17.4773 45.9564C16.7563 45.6079 16.2155 45.0792 15.843 44.3702C15.4224 43.5651 15.2782 42.6639 15.2782 41.7747V41.5464L16.6722 42.2193V42.5798C16.6722 43.1926 16.8164 43.8655 17.4412 44.166L18.0541 44.1299L18.2583 43.0484V40.6812L18.2343 40.6691C17.9579 41.306 17.4773 41.3781 16.8885 41.0897C16.3117 40.8133 15.9271 40.3447 15.6628 39.7679C15.3503 39.0469 15.2422 38.2178 15.2422 37.4487V35.2377C15.2422 34.6368 15.3143 33.6875 15.831 33.2189C16.3237 32.7743 16.9966 32.9906 17.5013 33.2309C18.2343 33.6034 18.775 34.1562 19.1596 34.8772C19.5802 35.6823 19.7364 36.5595 19.7364 37.4607V43.8415C19.7364 45.3195 19.2076 46.7976 17.4773 45.9564ZM17.5013 39.6237C18.1862 39.9602 18.2583 39.2272 18.2583 38.7705V36.5835C18.2583 35.9707 18.1141 35.3098 17.5013 35.0094C16.8043 34.6609 16.7322 35.3578 16.7322 35.8265V38.0255C16.7322 38.6383 16.8764 39.3113 17.5013 39.6237Z" fill="#079F5D"/>
</g>
<g id="Group_7">
<path id="Vector_11" d="M46.1819 46.0783C45.521 46.4028 45.1725 46.4388 44.5596 46.0783C43.9108 45.6698 43.8867 43.9634 43.8867 43.6149L43.9228 42.6296C44.3313 42.942 45.9175 42.1008 45.4489 42.3412L45.4369 43.4467C45.4369 43.8432 45.4729 44.6483 46.1578 44.2999L46.7106 43.7351L46.9029 42.5334L46.9149 41.524L46.7106 40.4185C46.5183 40.1902 46.2179 40.2984 46.0016 40.4065L45.533 40.6348L45.545 38.8684L46.0617 38.616L46.6866 38.0032L46.9149 36.8857L46.9269 35.9844L46.7346 35.1553L46.2299 35.1072C45.6772 35.3836 45.557 36.0325 45.545 36.5852V37.4024C45.0884 37.6187 43.6103 37.7749 44.103 37.871L44.115 37.2341C44.1511 36.3329 44.3313 35.66 44.7639 34.8789C45.1485 34.1819 45.5811 33.6893 46.302 33.3288C46.7587 33.0884 47.3835 32.9082 47.8161 33.3528C48.2848 33.8214 48.3208 34.7828 48.3208 35.3355V35.7801L48.0685 37.5225L47.3114 38.7602V38.7963C47.6839 38.8083 47.9363 38.9886 48.0925 39.325L48.3208 40.8271V41.9326C48.3088 42.8098 48.1646 43.7111 47.7681 44.5041C47.4076 45.2011 46.8788 45.7178 46.1819 46.0783Z" fill="#079F5D"/>
<path id="Vector_12" d="M51.3763 43.4708C50.8957 43.7232 50.2468 43.9155 49.7901 43.4588C49.2975 42.9661 49.2374 42.0048 49.2494 41.416L49.2854 34.9151C49.2854 34.0379 49.4296 33.1486 49.8382 32.3555C50.1987 31.6586 50.7154 31.1178 51.4124 30.7694C51.893 30.529 52.5299 30.3368 52.9865 30.7814C53.4552 31.238 53.5513 32.2234 53.5513 32.7761L53.5273 39.2771C53.5273 40.1903 53.3951 41.0435 52.9865 41.8606C52.626 42.5696 52.0973 43.1224 51.3763 43.4708ZM51.3883 41.6924C51.9892 41.392 52.1213 40.695 52.1213 40.1062L52.1334 33.3649C52.1334 32.9684 52.0853 32.1753 51.4124 32.5238C50.8115 32.8122 50.6794 33.4971 50.6794 34.0859L50.6553 40.8392C50.6553 41.2358 50.7034 42.0409 51.3883 41.6924Z" fill="#079F5D"/>
</g>
</g>
<defs>
<clipPath id="clip0_471_226">
<rect width="64" height="85" fill="white"/>
</clipPath>
</defs>
</svg>
