<?xml version="1.0" encoding="UTF-8"?>
<svg xmlns="http://www.w3.org/2000/svg" xmlns:xlink="http://www.w3.org/1999/xlink" width="24px" height="24px" viewBox="0 0 24 24" version="1.1">
<g id="surface1">
<path style=" stroke:none;fill-rule:nonzero;fill:rgb(2.745098%,62.352943%,36.470589%);fill-opacity:1;" d="M 12 0 C 18.628906 0 24 5.371094 24 12 C 24 18.628906 18.628906 24 12 24 C 5.371094 24 0 18.628906 0 12 C 0 5.371094 5.371094 0 12 0 Z M 12 0 "/>
<path style="fill-rule:nonzero;fill:rgb(100%,100%,100%);fill-opacity:1;stroke-width:0.36;stroke-linecap:butt;stroke-linejoin:miter;stroke:rgb(100%,100%,100%);stroke-opacity:1;stroke-miterlimit:4;" d="M 8.999297 3.500312 L 8.999297 7.50125 C 8.999297 7.777812 9.225156 7.999062 9.501719 7.999062 L 15.498515 7.999062 C 15.775078 7.999062 16.000937 7.777812 16.000937 7.50125 L 16.000937 3.500312 C 16.000937 3.22375 15.775078 2.99789 15.498515 2.99789 L 9.501719 2.99789 C 9.225156 2.99789 8.999297 3.22375 8.999297 3.500312 Z M 13.000234 12 L 16.512578 12 C 17.337656 12 18.010625 12.672969 18.010625 13.498047 L 18.010625 14.000468 L 20.499687 14.000468 C 21.329375 14.000468 21.997734 14.673437 21.997734 15.498515 L 21.997734 19.499453 C 21.997734 20.32914 21.329375 21.002109 20.499687 21.002109 L 19.499453 21.002109 C 19.776015 21.002109 20.001875 21.223359 20.001875 21.499922 C 20.001875 21.776484 19.776015 21.997734 19.499453 21.997734 L 15.498515 21.997734 C 15.221953 21.997734 15.000703 21.776484 15.000703 21.499922 C 15.000703 21.223359 15.221953 21.002109 15.498515 21.002109 L 14.498281 21.002109 C 13.673203 21.002109 13.000234 20.32914 13.000234 19.499453 L 13.000234 15.498515 C 13.000234 14.673437 13.673203 14.000468 14.498281 14.000468 L 17.01039 14.000468 L 17.01039 13.498047 C 17.01039 13.226093 16.78914 13.000234 16.512578 13.000234 L 8.501484 13.000234 C 8.224922 13.000234 7.999062 13.226093 7.999062 13.498047 L 7.999062 14.000468 L 10.501953 14.000468 C 11.327031 14.000468 12 14.673437 12 15.498515 L 12 19.499453 C 12 20.32914 11.327031 21.002109 10.501953 21.002109 L 9.501719 21.002109 C 9.778281 21.002109 9.999531 21.223359 9.999531 21.499922 C 9.999531 21.776484 9.778281 21.997734 9.501719 21.997734 L 5.500781 21.997734 C 5.224219 21.997734 4.998359 21.776484 4.998359 21.499922 C 4.998359 21.223359 5.224219 21.002109 5.500781 21.002109 L 4.500547 21.002109 C 3.670859 21.002109 2.99789 20.32914 2.99789 19.499453 L 2.99789 15.498515 C 2.99789 14.673437 3.670859 14.000468 4.500547 14.000468 L 6.998828 14.000468 L 6.998828 13.498047 C 6.998828 12.672969 7.671797 12 8.501484 12 L 12 12 L 12 9.999531 L 10.501953 9.999531 C 10.22539 9.999531 9.999531 9.778281 9.999531 9.501719 C 9.999531 9.225156 10.22539 8.999297 10.501953 8.999297 L 9.501719 8.999297 C 8.672031 8.999297 7.999062 8.326328 7.999062 7.50125 L 7.999062 3.500312 C 7.999062 2.670625 8.672031 2.002265 9.501719 2.002265 L 15.498515 2.002265 C 16.328203 2.002265 17.001172 2.670625 17.001172 3.500312 L 17.001172 7.50125 C 17.001172 8.326328 16.328203 8.999297 15.498515 8.999297 L 14.498281 8.999297 C 14.774843 8.999297 15.000703 9.225156 15.000703 9.501719 C 15.000703 9.778281 14.774843 9.999531 14.498281 9.999531 L 13.000234 9.999531 Z M 17.503593 15.000703 L 14.498281 15.000703 C 14.221718 15.000703 14.000468 15.221953 14.000468 15.498515 L 14.000468 19.499453 C 14.000468 19.776015 14.221718 20.001875 14.498281 20.001875 L 20.499687 20.001875 C 20.77625 20.001875 21.002109 19.776015 21.002109 19.499453 L 21.002109 15.498515 C 21.002109 15.221953 20.77625 15.000703 20.499687 15.000703 L 17.517422 15.000703 C 17.517422 15.000703 17.512812 15.000703 17.512812 15.000703 C 17.508203 15.000703 17.508203 15.000703 17.503593 15.000703 Z M 3.998125 15.498515 L 3.998125 19.499453 C 3.998125 19.776015 4.223984 20.001875 4.500547 20.001875 L 10.501953 20.001875 C 10.773906 20.001875 10.999765 19.776015 10.999765 19.499453 L 10.999765 15.498515 C 10.999765 15.221953 10.773906 15.000703 10.501953 15.000703 L 4.500547 15.000703 C 4.223984 15.000703 3.998125 15.221953 3.998125 15.498515 Z M 3.998125 15.498515 " transform="matrix(0.847458,0,0,0.847458,1.830509,1.830509)"/>
</g>
</svg>
