<?xml version="1.0" encoding="UTF-8"?>
<svg xmlns="http://www.w3.org/2000/svg" xmlns:xlink="http://www.w3.org/1999/xlink" width="24px" height="24px" viewBox="0 0 24 24" version="1.1">
<g id="surface1">
<path style="fill-rule:nonzero;fill:rgb(32.941177%,32.941177%,32.941177%);fill-opacity:1;stroke-width:0.00024;stroke-linecap:butt;stroke-linejoin:miter;stroke:rgb(32.941177%,32.941177%,32.941177%);stroke-opacity:1;stroke-miterlimit:4;" d="M 9 3.5 L 9 7.5 C 9 7.777344 9.222656 8 9.5 8 L 15.5 8 C 15.777344 8 16 7.777344 16 7.5 L 16 3.5 C 16 3.222656 15.777344 3 15.5 3 L 9.5 3 C 9.222656 3 9 3.222656 9 3.5 Z M 13 12 L 16.511719 12 C 17.339844 12 18.011719 12.671875 18.011719 13.5 L 18.011719 14 L 20.5 14 C 21.328125 14 22 14.671875 22 15.5 L 22 19.5 C 22 20.328125 21.328125 21 20.5 21 L 19.5 21 C 19.777344 21 20 21.222656 20 21.5 C 20 21.777344 19.777344 22 19.5 22 L 15.5 22 C 15.222656 22 15 21.777344 15 21.5 C 15 21.222656 15.222656 21 15.5 21 L 14.5 21 C 13.671875 21 13 20.328125 13 19.5 L 13 15.5 C 13 14.671875 13.671875 14 14.5 14 L 17.011719 14 L 17.011719 13.5 C 17.011719 13.222656 16.789062 13 16.511719 13 L 8.5 13 C 8.222656 13 8 13.222656 8 13.5 L 8 14 L 10.5 14 C 11.328125 14 12 14.671875 12 15.5 L 12 19.5 C 12 20.328125 11.328125 21 10.5 21 L 9.5 21 C 9.777344 21 10 21.222656 10 21.5 C 10 21.777344 9.777344 22 9.5 22 L 5.5 22 C 5.222656 22 5 21.777344 5 21.5 C 5 21.222656 5.222656 21 5.5 21 L 4.5 21 C 3.671875 21 3 20.328125 3 19.5 L 3 15.5 C 3 14.671875 3.671875 14 4.5 14 L 7 14 L 7 13.5 C 7 12.671875 7.671875 12 8.5 12 L 12 12 L 12 10 L 10.5 10 C 10.222656 10 10 9.777344 10 9.5 C 10 9.222656 10.222656 9 10.5 9 L 9.5 9 C 8.671875 9 8 8.328125 8 7.5 L 8 3.5 C 8 2.671875 8.671875 2 9.5 2 L 15.5 2 C 16.328125 2 17 2.671875 17 3.5 L 17 7.5 C 17 8.328125 16.328125 9 15.5 9 L 14.5 9 C 14.777344 9 15 9.222656 15 9.5 C 15 9.777344 14.777344 10 14.5 10 L 13 10 Z M 17.503906 15 L 14.5 15 C 14.222656 15 14 15.222656 14 15.5 L 14 19.5 C 14 19.777344 14.222656 20 14.5 20 L 20.5 20 C 20.777344 20 21 19.777344 21 19.5 L 21 15.5 C 21 15.222656 20.777344 15 20.5 15 L 17.519531 15 C 17.515625 15 17.515625 15 17.511719 15 C 17.507812 15 17.507812 15 17.503906 15 Z M 4 15.5 L 4 19.5 C 4 19.777344 4.222656 20 4.5 20 L 10.5 20 C 10.777344 20 11 19.777344 11 19.5 L 11 15.5 C 11 15.222656 10.777344 15 10.5 15 L 4.5 15 C 4.222656 15 4 15.222656 4 15.5 Z M 4 15.5 "/>
</g>
</svg>
