<?xml version="1.0" encoding="UTF-8"?>
<svg xmlns="http://www.w3.org/2000/svg" xmlns:xlink="http://www.w3.org/1999/xlink" width="38px" height="38px" viewBox="0 0 38 38" version="1.1">
<g id="surface1">
<path style=" stroke:none;fill-rule:nonzero;fill:rgb(97.647059%,24.313726%,24.313726%);fill-opacity:1;" d="M 18.09375 0.0195312 C 15.269531 0.183594 12.855469 0.824219 10.449219 2.035156 C 5.214844 4.675781 1.492188 9.578125 0.359375 15.320312 C 0.105469 16.59375 0.0195312 17.566406 0.0195312 19 C 0.0195312 20.195312 0.0507812 20.691406 0.195312 21.703125 C 0.859375 26.339844 3.199219 30.539062 6.808594 33.566406 C 9.628906 35.933594 13.09375 37.433594 16.742188 37.863281 C 17.578125 37.960938 17.980469 37.984375 19 37.984375 C 20.066406 37.984375 20.441406 37.964844 21.359375 37.847656 C 27.652344 37.074219 33.160156 33.167969 36.003906 27.476562 C 36.914062 25.65625 37.511719 23.730469 37.804688 21.703125 C 37.949219 20.695312 37.980469 20.195312 37.980469 19.015625 C 37.980469 17.832031 37.945312 17.285156 37.804688 16.296875 C 36.613281 7.960938 30.03125 1.378906 21.703125 0.191406 C 20.816406 0.0664062 20.253906 0.0273438 19.238281 0.0195312 C 18.707031 0.0117188 18.191406 0.0117188 18.09375 0.0195312 Z M 20.242188 2.128906 C 21.195312 3.136719 21.625 3.617188 22.199219 4.324219 C 23.464844 5.894531 24.578125 7.613281 25.390625 9.261719 C 25.632812 9.753906 26.007812 10.578125 25.992188 10.59375 C 25.964844 10.621094 25.222656 10.832031 24.671875 10.96875 C 23.800781 11.1875 23.148438 11.316406 22.175781 11.460938 C 21.730469 11.523438 21.113281 11.585938 20.167969 11.652344 L 19.921875 11.667969 L 19.921875 6.769531 C 19.921875 2.898438 19.929688 1.871094 19.957031 1.871094 C 19.976562 1.871094 20.105469 1.984375 20.242188 2.128906 Z M 18.078125 6.828125 L 18.078125 11.671875 L 17.867188 11.652344 C 17.746094 11.644531 17.457031 11.621094 17.21875 11.609375 C 16.328125 11.542969 15.367188 11.410156 14.414062 11.21875 C 13.628906 11.0625 12.203125 10.6875 12.203125 10.640625 C 12.203125 10.632812 12.300781 10.398438 12.425781 10.113281 C 13.484375 7.734375 14.949219 5.460938 16.800781 3.332031 C 17.230469 2.839844 18.023438 1.988281 18.054688 1.988281 C 18.066406 1.988281 18.078125 4.167969 18.078125 6.828125 Z M 15.242188 2.292969 C 15.226562 2.3125 15.117188 2.449219 14.992188 2.597656 C 13.230469 4.683594 11.683594 7.148438 10.671875 9.503906 C 10.554688 9.78125 10.445312 10.015625 10.4375 10.027344 C 10.398438 10.066406 8.703125 9.285156 7.980469 8.890625 C 7.152344 8.4375 6.085938 7.777344 6.085938 7.71875 C 6.085938 7.660156 7.558594 6.210938 7.941406 5.894531 C 9.839844 4.324219 11.816406 3.253906 14.082031 2.566406 C 14.289062 2.507812 15.207031 2.261719 15.253906 2.257812 C 15.257812 2.257812 15.253906 2.273438 15.242188 2.292969 Z M 23.335938 2.40625 C 26.027344 3.125 28.378906 4.390625 30.441406 6.230469 C 30.835938 6.585938 31.832031 7.589844 31.886719 7.691406 C 31.910156 7.738281 31.871094 7.773438 31.574219 7.96875 C 30.84375 8.441406 29.917969 8.964844 29.109375 9.355469 C 28.566406 9.617188 27.824219 9.945312 27.777344 9.945312 C 27.757812 9.945312 27.65625 9.75 27.550781 9.507812 C 26.574219 7.273438 25.175781 5.027344 23.472656 2.957031 C 23.257812 2.699219 23.050781 2.445312 23.015625 2.402344 C 22.976562 2.355469 22.953125 2.316406 22.96875 2.316406 C 22.980469 2.316406 23.148438 2.355469 23.335938 2.40625 Z M 6.136719 9.972656 C 7.125 10.566406 8.097656 11.058594 9.175781 11.519531 C 9.492188 11.65625 9.765625 11.773438 9.777344 11.785156 C 9.789062 11.796875 9.765625 11.910156 9.726562 12.042969 C 9.417969 13.027344 9.128906 14.242188 8.96875 15.230469 C 8.839844 16 8.699219 17.324219 8.699219 17.71875 C 8.699219 17.816406 8.691406 17.9375 8.679688 17.988281 L 8.660156 18.078125 L 5.273438 18.074219 L 1.886719 18.066406 L 1.894531 17.886719 C 1.960938 16.457031 2.304688 14.785156 2.839844 13.253906 C 3.296875 11.957031 4.09375 10.382812 4.796875 9.390625 L 4.929688 9.207031 L 5.3125 9.457031 C 5.523438 9.59375 5.894531 9.828125 6.136719 9.972656 Z M 33.316406 9.566406 C 34.296875 11.054688 35.011719 12.617188 35.507812 14.34375 C 35.78125 15.3125 36.019531 16.636719 36.085938 17.574219 C 36.09375 17.714844 36.109375 17.882812 36.117188 17.953125 L 36.132812 18.078125 L 29.578125 18.078125 L 29.558594 17.699219 C 29.457031 15.953125 29.113281 14.019531 28.585938 12.304688 C 28.503906 12.027344 28.433594 11.777344 28.429688 11.746094 C 28.425781 11.707031 28.546875 11.644531 28.972656 11.460938 C 30.125 10.957031 31.34375 10.308594 32.421875 9.625 C 32.707031 9.445312 32.964844 9.277344 32.996094 9.253906 C 33.03125 9.226562 33.066406 9.214844 33.078125 9.222656 C 33.09375 9.230469 33.199219 9.382812 33.316406 9.566406 Z M 26.722656 12.542969 C 27.207031 14.078125 27.507812 15.554688 27.652344 17.113281 C 27.675781 17.375 27.699219 17.695312 27.703125 17.828125 L 27.714844 18.066406 L 23.816406 18.074219 L 19.921875 18.078125 L 19.921875 13.519531 L 20.507812 13.484375 C 22.394531 13.371094 24.507812 12.996094 26.199219 12.472656 C 26.414062 12.40625 26.601562 12.355469 26.625 12.359375 C 26.648438 12.363281 26.691406 12.445312 26.722656 12.542969 Z M 12.03125 12.539062 C 13.785156 13.050781 15.667969 13.375 17.496094 13.484375 L 18.078125 13.519531 L 18.078125 18.078125 L 10.539062 18.078125 L 10.539062 17.949219 C 10.539062 17.730469 10.625 16.761719 10.691406 16.269531 C 10.8125 15.339844 11.015625 14.320312 11.253906 13.429688 C 11.394531 12.90625 11.546875 12.410156 11.5625 12.410156 C 11.570312 12.410156 11.78125 12.46875 12.03125 12.539062 Z M 8.679688 19.984375 C 8.691406 20.023438 8.699219 20.132812 8.699219 20.230469 C 8.699219 20.480469 8.777344 21.328125 8.847656 21.894531 C 9.03125 23.320312 9.382812 24.871094 9.828125 26.222656 C 9.90625 26.46875 9.964844 26.683594 9.953125 26.691406 C 9.9375 26.703125 9.765625 26.78125 9.558594 26.859375 C 8.339844 27.347656 6.957031 28.058594 5.691406 28.851562 C 5.414062 29.019531 5.179688 29.148438 5.167969 29.136719 C 5.101562 29.0625 4.703125 28.476562 4.519531 28.183594 C 3.332031 26.304688 2.535156 24.273438 2.140625 22.117188 C 2.042969 21.59375 1.945312 20.839844 1.914062 20.425781 C 1.90625 20.285156 1.890625 20.117188 1.882812 20.046875 L 1.867188 19.921875 L 8.664062 19.921875 Z M 18.078125 22.46875 L 18.078125 25.019531 L 17.792969 25.039062 C 16.003906 25.152344 14.835938 25.316406 13.320312 25.664062 C 12.902344 25.761719 11.792969 26.058594 11.753906 26.082031 C 11.734375 26.09375 11.503906 25.40625 11.34375 24.847656 C 10.925781 23.382812 10.644531 21.769531 10.550781 20.238281 L 10.53125 19.921875 L 18.078125 19.921875 Z M 27.714844 20.132812 C 27.648438 20.992188 27.628906 21.21875 27.5625 21.730469 C 27.429688 22.734375 27.21875 23.769531 26.953125 24.730469 C 26.800781 25.269531 26.515625 26.15625 26.492188 26.15625 C 26.488281 26.15625 26.328125 26.109375 26.144531 26.054688 C 25.09375 25.734375 23.792969 25.449219 22.652344 25.28125 C 21.820312 25.160156 21.300781 25.109375 20.210938 25.039062 L 19.921875 25.019531 L 19.921875 19.921875 L 27.730469 19.921875 Z M 36.117188 20.03125 C 36.109375 20.09375 36.09375 20.261719 36.085938 20.410156 C 35.925781 22.753906 35.125 25.351562 33.898438 27.492188 C 33.589844 28.019531 32.96875 28.984375 32.832031 29.136719 C 32.820312 29.148438 32.585938 29.023438 32.308594 28.851562 C 31.089844 28.085938 29.589844 27.3125 28.523438 26.894531 C 28.378906 26.835938 28.261719 26.777344 28.261719 26.757812 C 28.261719 26.738281 28.289062 26.652344 28.320312 26.566406 C 28.425781 26.304688 28.765625 25.152344 28.902344 24.597656 C 29.25 23.203125 29.460938 21.835938 29.546875 20.492188 L 29.582031 19.921875 L 36.136719 19.921875 Z M 18.078125 31.445312 L 18.078125 35.996094 L 17.746094 35.65625 C 15.667969 33.496094 13.847656 30.890625 12.675781 28.382812 C 12.546875 28.097656 12.441406 27.851562 12.449219 27.835938 C 12.476562 27.773438 13.785156 27.441406 14.695312 27.269531 C 15.765625 27.070312 17.035156 26.921875 17.835938 26.902344 L 18.078125 26.898438 Z M 21.210938 26.972656 C 22.640625 27.113281 24.195312 27.40625 25.425781 27.777344 C 25.574219 27.816406 25.71875 27.863281 25.746094 27.867188 C 25.773438 27.875 25.796875 27.898438 25.796875 27.917969 C 25.796875 27.988281 24.988281 29.578125 24.675781 30.117188 C 23.730469 31.761719 22.65625 33.25 21.292969 34.789062 C 20.679688 35.480469 20.042969 36.128906 19.976562 36.128906 C 19.921875 36.128906 19.921875 36.015625 19.921875 31.511719 L 19.921875 26.886719 L 20.34375 26.910156 C 20.578125 26.921875 20.96875 26.949219 21.210938 26.972656 Z M 11.148438 29.464844 C 12.144531 31.523438 13.378906 33.417969 14.933594 35.285156 C 15.144531 35.535156 15.308594 35.742188 15.300781 35.742188 C 15.253906 35.742188 14.597656 35.578125 14.257812 35.480469 C 11.410156 34.652344 8.914062 33.167969 6.785156 31.027344 L 6.375 30.613281 L 6.625 30.449219 C 7.59375 29.820312 9.175781 29.011719 10.390625 28.519531 L 10.644531 28.417969 L 10.714844 28.570312 C 10.753906 28.65625 10.949219 29.054688 11.148438 29.464844 Z M 28.105469 28.730469 C 29.039062 29.125 30.5625 29.925781 31.375 30.449219 L 31.625 30.613281 L 31.199219 31.042969 C 29.308594 32.945312 27.089844 34.34375 24.597656 35.207031 C 24.015625 35.410156 23.007812 35.699219 23.007812 35.664062 C 23.007812 35.65625 23.164062 35.460938 23.359375 35.230469 C 24.953125 33.320312 26.316406 31.195312 27.28125 29.125 C 27.4375 28.796875 27.578125 28.53125 27.597656 28.53125 C 27.617188 28.53125 27.847656 28.617188 28.105469 28.730469 Z M 28.105469 28.730469 "/>
</g>
</svg>
