<svg width="24" height="24" viewBox="0 0 24 24" fill="none" xmlns="http://www.w3.org/2000/svg">
<g id="youtube">
<rect id="Rectangle 26" width="24" height="24" rx="11.7189" fill="#079F5D"/>
<path id="Vector" fill-rule="evenodd" clip-rule="evenodd" d="M17.8604 7.29855C18.5058 7.46282 19.014 7.94685 19.1865 8.56153C19.5 9.67559 19.5 12 19.5 12C19.5 12 19.5 14.3244 19.1865 15.4385C19.014 16.0531 18.5058 16.5372 17.8604 16.7015C16.6907 17 12 17 12 17C12 17 7.30937 17 6.13959 16.7015C5.49423 16.5372 4.98593 16.0531 4.81344 15.4385C4.5 14.3244 4.5 12 4.5 12C4.5 12 4.5 9.67559 4.81344 8.56153C4.98593 7.94685 5.49423 7.46282 6.13959 7.29855C7.30937 7 12 7 12 7C12 7 16.6907 7 17.8604 7.29855ZM14.3863 12.0001L10.4658 14.1104V9.88962L14.3863 12.0001Z" fill="#F8F8F8"/>
</g>
</svg>
