<svg width="24" height="24" viewBox="0 0 24 24" fill="none" xmlns="http://www.w3.org/2000/svg">
<g id="instagram">
<rect id="Rectangle 26" width="24" height="24" rx="11.7189" fill="#079F5D"/>
<g id="Vector">
<path fill-rule="evenodd" clip-rule="evenodd" d="M9.26778 5.44891C8.56583 5.48203 8.08647 5.59405 7.66742 5.75872C7.23371 5.92774 6.86611 6.15455 6.50036 6.52162C6.13461 6.88869 5.90938 7.25656 5.74155 7.69092C5.57912 8.1109 5.46908 8.59065 5.43807 9.293C5.40706 9.99534 5.4002 10.2211 5.40363 12.0126C5.40706 13.8042 5.41498 14.0288 5.44902 14.7326C5.48254 15.4344 5.59416 15.9136 5.75883 16.3328C5.92812 16.7665 6.15467 17.134 6.52187 17.4998C6.88907 17.8657 7.25667 18.0904 7.69209 18.2585C8.11167 18.4207 8.59156 18.5313 9.29377 18.562C9.99598 18.5927 10.222 18.5999 12.013 18.5964C13.804 18.593 14.0295 18.5851 14.7332 18.5517C15.4369 18.5183 15.9136 18.4059 16.3329 18.242C16.7666 18.0724 17.1343 17.8462 17.5 17.4789C17.8656 17.1115 18.0907 16.7434 18.2584 16.3088C18.4209 15.8892 18.5314 15.4093 18.5619 14.7076C18.5926 14.0034 18.5999 13.7786 18.5964 11.9873C18.593 10.196 18.5849 9.97146 18.5516 9.26793C18.5182 8.5644 18.4064 8.08662 18.2419 7.66717C18.0723 7.23347 17.8461 6.86626 17.479 6.50012C17.1119 6.13397 16.7435 5.909 16.309 5.7417C15.8892 5.57927 15.4096 5.46857 14.7073 5.43822C14.0051 5.40788 13.7791 5.40009 11.9874 5.40352C10.1957 5.40695 9.97144 5.4146 9.26778 5.44891ZM8.11959 17.1509C8.35234 17.2403 8.7016 17.3472 9.34483 17.3752C10.0406 17.4052 10.2485 17.4124 12.0103 17.4085C13.772 17.4047 13.9805 17.3979 14.6762 17.3651C15.3186 17.3345 15.6679 17.2263 15.9001 17.1357C16.2081 17.0153 16.4275 16.8726 16.6579 16.6409C16.8883 16.4092 17.0314 16.1895 17.1502 15.8814C17.2398 15.6484 17.3464 15.299 17.3745 14.6558C17.405 13.9606 17.4112 13.7514 17.408 11.9905C17.4048 10.2295 17.3973 10.0209 17.3642 9.32519C17.3338 8.68183 17.2259 8.3331 17.135 8.10127C17.0147 7.79278 16.8718 7.57389 16.6399 7.34325C16.4081 7.11261 16.1887 6.96997 15.8803 6.85122C15.648 6.76137 15.2982 6.65489 14.6555 6.62692C13.9595 6.5963 13.7505 6.58971 11.9894 6.59353C10.2283 6.59736 10.0199 6.60396 9.32412 6.63694C8.68115 6.66755 8.33229 6.77549 8.0998 6.86626C7.79197 6.9866 7.57228 7.12936 7.34204 7.36119C7.11179 7.59302 6.96877 7.81218 6.85002 8.1208C6.76069 8.35342 6.65315 8.70307 6.62571 9.34578C6.59523 10.0413 6.5885 10.2497 6.59233 12.0111C6.59615 13.7724 6.60301 13.9811 6.63574 14.6764C6.66582 15.3196 6.77468 15.6684 6.86506 15.9012C6.98539 16.2088 7.12789 16.4291 7.35985 16.6588C7.59181 16.8885 7.81137 17.0321 8.11959 17.1509Z" fill="#F8F8F8"/>
<path d="M9.80097 12.0042C9.80011 11.5693 9.92824 11.1438 10.1692 10.7817C10.4101 10.4196 10.753 10.137 11.1545 9.96979C11.556 9.80255 11.9981 9.75813 12.4248 9.84214C12.8516 9.92615 13.2439 10.1348 13.552 10.4418C13.8602 10.7487 14.0704 11.1401 14.1561 11.5666C14.2418 11.993 14.1991 12.4352 14.0335 12.8374C13.8678 13.2396 13.5866 13.5836 13.2255 13.8259C12.8643 14.0683 12.4394 14.1981 12.0044 14.199C11.7156 14.1996 11.4296 14.1433 11.1625 14.0333C10.8955 13.9233 10.6527 13.7618 10.4481 13.558C10.2435 13.3542 10.081 13.1121 9.96996 12.8455C9.85893 12.5789 9.8015 12.293 9.80097 12.0042Z" fill="#F8F8F8"/>
<path fill-rule="evenodd" clip-rule="evenodd" d="M14.8572 8.91365C14.77 8.7836 14.7233 8.6306 14.723 8.47401C14.7227 8.2641 14.8057 8.06263 14.9539 7.91393C15.1021 7.76522 15.3032 7.68144 15.5131 7.68102C15.6697 7.68071 15.8229 7.72684 15.9533 7.81358C16.0836 7.90033 16.1853 8.02378 16.2455 8.16833C16.3057 8.31289 16.3217 8.47205 16.2915 8.62568C16.2612 8.77932 16.1861 8.92053 16.0755 9.03146C15.965 9.14239 15.8241 9.21805 15.6706 9.24887C15.517 9.2797 15.3578 9.2643 15.213 9.20463C15.0683 9.14496 14.9444 9.0437 14.8572 8.91365ZM8.11959 17.1509C8.35234 17.2403 8.7016 17.3472 9.34483 17.3752C10.0406 17.4052 10.2485 17.4124 12.0103 17.4085C13.772 17.4047 13.9805 17.3979 14.6762 17.3651C15.3186 17.3345 15.6679 17.2263 15.9001 17.1357C16.2081 17.0153 16.4275 16.8726 16.6579 16.6409C16.8883 16.4092 17.0314 16.1895 17.1502 15.8814C17.2398 15.6484 17.3464 15.299 17.3745 14.6558C17.405 13.9606 17.4112 13.7514 17.408 11.9905C17.4048 10.2295 17.3973 10.0209 17.3642 9.32519C17.3338 8.68183 17.2259 8.3331 17.135 8.10127C17.0147 7.79278 16.8718 7.57389 16.6399 7.34325C16.4081 7.11261 16.1887 6.96997 15.8803 6.85122C15.648 6.76137 15.2982 6.65489 14.6555 6.62692C13.9595 6.5963 13.7505 6.58971 11.9894 6.59353C10.2283 6.59736 10.0199 6.60396 9.32412 6.63694C8.68115 6.66755 8.33229 6.77549 8.0998 6.86626C7.79197 6.9866 7.57228 7.12936 7.34204 7.36119C7.11179 7.59302 6.96877 7.81218 6.85002 8.1208C6.76069 8.35342 6.65315 8.70307 6.62571 9.34578C6.59523 10.0413 6.5885 10.2497 6.59233 12.0111C6.59615 13.7724 6.60301 13.9811 6.63574 14.6764C6.66582 15.3196 6.77468 15.6684 6.86506 15.9012C6.98539 16.2088 7.12789 16.4291 7.35985 16.6588C7.59181 16.8885 7.81137 17.0321 8.11959 17.1509ZM12.0064 15.3873C10.1358 15.3908 8.61636 13.8776 8.61267 12.0066C8.60911 10.1359 10.1226 8.61612 11.9935 8.61242C13.8643 8.60873 15.3842 10.1224 15.3878 11.9934C15.3913 13.8644 13.877 15.3837 12.0064 15.3873Z" fill="#F8F8F8"/>
</g>
</g>
</svg>
