<?xml version="1.0" standalone="no"?>
<!DOCTYPE svg PUBLIC "-//W3C//DTD SVG 20010904//EN"
 "http://www.w3.org/TR/2001/REC-SVG-20010904/DTD/svg10.dtd">
<svg version="1.0" xmlns="http://www.w3.org/2000/svg"
 width="680.000000pt" height="680.000000pt" viewBox="0 0 680.000000 680.000000"
 preserveAspectRatio="xMidYMid meet">
<metadata>
Created by potrace 1.14, written by Peter Selinger 2001-2017
</metadata>
<g transform="translate(0.000000,680.000000) scale(0.100000,-0.100000)"
fill="#000000" stroke="none">
<path d="M2293 6247 c-645 -323 -1103 -558 -1105 -567 -4 -14 -1 -3294 3
-3355 3 -61 3 -61 -123 -116 -68 -30 -126 -54 -130 -54 -3 0 -20 -10 -37 -23
-28 -20 -31 -28 -27 -60 8 -54 16 -93 26 -127 5 -16 11 -41 14 -55 11 -57 48
-175 69 -219 l22 -46 55 1 c30 0 78 3 105 7 28 4 80 10 117 13 79 8 84 4 128
-88 44 -92 78 -152 143 -251 57 -88 68 -124 44 -149 -7 -7 -50 -63 -96 -125
l-82 -112 18 -38 c22 -48 280 -305 322 -323 30 -12 35 -11 79 21 26 18 49 35
52 39 24 27 164 120 180 120 18 0 66 -24 80 -40 4 -5 36 -25 180 -111 8 -5 52
-27 98 -49 55 -26 85 -47 91 -62 5 -13 7 -25 6 -28 -3 -5 -15 -98 -21 -160 -1
-19 -6 -56 -9 -83 -8 -53 12 -97 44 -97 10 0 21 -3 25 -7 3 -4 12 -8 19 -10 7
-1 50 -14 97 -28 47 -14 94 -27 105 -29 11 -2 38 -9 60 -15 22 -6 63 -13 90
-16 60 -8 57 -11 135 170 28 66 60 127 70 136 15 13 31 15 67 11 62 -7 335 -7
390 0 27 3 49 1 61 -8 10 -7 45 -75 77 -151 32 -76 65 -144 71 -151 7 -6 23
-12 36 -12 23 0 193 39 256 59 18 5 34 10 37 11 6 1 12 3 97 30 73 23 83 38
73 110 -2 19 -7 58 -10 85 -9 77 -15 119 -19 140 -8 42 12 63 106 110 131 67
132 68 243 139 l100 64 33 -19 c30 -17 190 -135 202 -148 14 -16 51 -30 68
-26 12 2 35 16 54 32 69 58 269 267 284 294 18 35 14 43 -70 154 -89 116 -106
144 -106 166 0 11 24 57 54 102 56 85 109 178 161 282 l30 60 55 0 c51 0 84
-3 233 -21 50 -6 60 -4 76 12 15 17 61 143 76 209 2 11 9 38 15 60 6 22 13 54
16 70 3 17 9 41 13 55 7 23 8 39 2 86 0 6 -36 25 -78 44 -43 18 -106 46 -141
62 -34 15 -66 28 -71 28 -14 0 -29 45 -24 75 5 35 10 3320 5 3350 -3 17 -234
136 -1108 573 -607 304 -1105 552 -1107 551 -1 0 -498 -248 -1104 -552z m2079
-256 l953 -476 0 -1550 c-1 -852 -4 -1582 -7 -1621 -10 -109 -55 -319 -89
-414 -16 -47 -31 -89 -33 -95 -23 -77 -158 -336 -198 -379 -10 -11 -18 -23
-18 -28 0 -4 -6 -16 -14 -25 -192 -235 -273 -315 -446 -440 -222 -160 -526
-289 -775 -329 -16 -2 -40 -7 -51 -9 -89 -19 -392 -26 -509 -11 -49 6 -231 40
-270 50 -5 2 -23 6 -40 10 -131 33 -423 167 -526 241 -27 19 -52 35 -55 35 -3
0 -11 6 -19 13 -24 22 -55 47 -60 47 -8 0 -64 49 -157 140 -78 75 -228 250
-228 265 0 3 -8 15 -18 26 -11 10 -25 32 -32 47 -8 15 -19 34 -26 42 -74 95
-219 463 -239 605 -2 11 -6 34 -9 50 -7 33 -14 75 -23 145 -3 25 -6 752 -7
1615 l-1 1570 960 481 c528 264 966 479 972 476 7 -2 441 -218 965 -481z"/>
<path d="M2543 5823 c-469 -235 -853 -430 -853 -433 0 -3 385 -197 855 -432
l855 -427 855 427 c470 235 854 430 852 434 -2 6 -1700 858 -1709 858 -1 0
-387 -193 -855 -427z"/>
<path d="M4394 4941 c-5 -5 -146 -77 -314 -161 -168 -83 -312 -155 -320 -159
-8 -5 -93 -48 -188 -95 l-173 -86 -487 244 c-268 134 -496 246 -507 250 -20 6
-20 3 -20 -309 0 -193 4 -318 10 -324 6 -5 234 -122 508 -259 l499 -249 506
254 507 254 0 319 c0 175 -3 321 -6 324 -3 3 -10 2 -15 -3z"/>
<path d="M2618 3843 c-9 -18 -1 -409 10 -434 6 -15 25 -36 44 -47 69 -43 669
-338 676 -332 12 8 7 402 -5 425 -6 11 -20 28 -30 37 -21 19 -634 328 -644
325 -4 -1 -16 6 -27 16 -11 10 -22 15 -24 10z"/>
<path d="M4050 3781 c-74 -37 -146 -73 -160 -81 -14 -8 -27 -15 -30 -15 -3 -1
-85 -41 -183 -90 -179 -88 -226 -123 -228 -168 -4 -85 -3 -407 2 -407 3 0 9 3
13 8 4 4 11 7 14 8 4 0 153 73 331 162 311 156 369 192 372 232 1 11 5 423 4
419 0 0 -61 -31 -135 -68z"/>
<path d="M2617 3283 c-2 -5 -3 -99 -2 -210 0 -186 2 -204 21 -230 14 -20 117
-77 359 -200 187 -94 345 -172 350 -172 16 -1 11 414 -5 434 -7 8 -9 15 -4 15
22 0 -66 47 -375 202 -184 93 -336 168 -337 168 -2 0 -5 -3 -7 -7z"/>
<path d="M3998 3201 c-98 -49 -178 -86 -178 -82 0 3 -4 1 -8 -5 -4 -6 -77 -45
-164 -88 -86 -43 -163 -85 -171 -94 -9 -10 -20 -35 -24 -57 -10 -44 -10 -391
-1 -400 3 -4 160 72 349 167 247 124 349 181 363 201 19 26 21 44 21 237 0
116 -2 210 -5 210 -3 0 -85 -40 -182 -89z"/>
<path d="M1680 3117 c1 -50 1 -128 1 -172 0 -44 0 -105 0 -135 -1 -30 0 -95 0
-145 1 -84 1 -128 -2 -157 -3 -34 13 -189 27 -263 2 -10 6 -37 9 -58 7 -46 60
-228 81 -277 40 -93 100 -212 141 -280 82 -134 257 -335 358 -412 17 -12 32
-25 35 -29 3 -3 37 -28 75 -56 209 -150 486 -264 730 -298 177 -26 404 -25
540 1 10 2 37 6 58 9 58 9 222 59 312 95 137 55 345 175 412 239 12 12 25 21
28 21 3 0 13 8 23 18 154 146 167 160 238 247 79 97 151 214 223 362 11 24 17
43 13 43 -4 0 -2 4 3 8 9 6 57 135 70 187 11 43 45 202 50 230 3 17 7 96 10
178 3 81 6 151 6 155 1 4 0 12 -1 17 -1 6 -1 37 0 70 0 33 1 67 1 75 -1 8 -1
44 0 80 0 36 0 72 0 80 -1 18 0 140 0 155 2 45 -6 95 -15 95 -7 0 -22 -7 -34
-16 -12 -8 -22 -12 -22 -8 0 3 -6 1 -14 -5 -7 -6 -378 -194 -824 -417 l-811
-405 -308 153 c-169 84 -309 156 -311 161 -2 4 -9 7 -15 7 -15 0 -301 143
-305 153 -2 4 -8 7 -14 7 -5 0 -180 85 -389 190 l-379 190 0 -93z m1212 -607
c125 -62 230 -116 234 -119 3 -3 9 -6 13 -6 4 0 45 -20 93 -44 122 -62 121
-60 122 -300 1 -108 0 -201 -2 -208 -2 -8 -54 13 -145 60 -78 39 -149 74 -157
77 -8 3 -53 25 -100 50 -47 24 -87 44 -90 45 -3 1 -34 16 -70 35 -36 19 -67
34 -70 35 -13 2 -57 29 -71 45 -29 29 -33 61 -34 267 l-1 201 26 -12 c14 -7
127 -64 252 -126z m1293 -67 c-1 -103 -5 -203 -9 -221 -9 -39 -45 -65 -191
-134 -55 -26 -107 -52 -115 -58 -24 -15 -124 -63 -138 -66 -7 -1 -19 -7 -26
-13 -10 -9 -252 -131 -259 -131 -6 0 1 400 7 426 4 16 16 37 26 45 40 29 695
354 700 347 3 -4 5 -92 5 -195z m-1212 -527 c260 -130 342 -175 359 -199 21
-29 22 -41 22 -234 0 -111 -3 -205 -6 -208 -3 -3 -160 72 -349 167 -245 124
-349 181 -363 201 -19 26 -21 44 -21 230 -1 111 0 206 3 210 5 10 -34 29 355
-167z m1209 162 c2 -7 4 -101 3 -209 -1 -185 -2 -197 -23 -227 -18 -25 -95
-67 -364 -202 -188 -94 -344 -167 -347 -161 -3 5 -6 100 -5 211 1 184 3 203
21 228 13 19 126 81 359 198 186 95 342 172 345 173 4 1 9 -5 11 -11z"/>
</g>
</svg>
